# Blender v3.0.0 OBJ File: ''
# www.blender.org
mtllib tip.mtl
o tip_Cube
v -0.500000 -0.500000 0.500000
v 0.000000 0.197381 0.000000
v -0.500000 -0.500000 -0.500000
v 0.500000 -0.500000 0.500000
v 0.500000 -0.500000 -0.500000
vt 0.780905 0.183137
vt 0.478150 0.702727
vt 0.175394 0.183137
vt 0.777918 0.183969
vt 0.475163 0.703560
vt 0.172408 0.183969
vt 0.781737 0.180398
vt 0.478981 0.699989
vt 0.176226 0.180399
vt 0.783646 0.183138
vt 0.480891 0.702729
vt 0.178135 0.183138
vt 0.163938 0.820027
vt 0.163938 0.214516
vt 0.769449 0.214516
vt 0.769449 0.820027
vn -0.8127 0.5827 0.0000
vn 0.0000 0.5827 -0.8127
vn 0.8127 0.5827 0.0000
vn 0.0000 0.5827 0.8127
vn 0.0000 -1.0000 0.0000
usemtl TipMat
s off
f 1/1/1 2/2/1 3/3/1
f 3/4/2 2/5/2 5/6/2
f 5/7/3 2/8/3 4/9/3
f 4/10/4 2/11/4 1/12/4
f 3/13/5 5/14/5 4/15/5 1/16/5
